REM GENRE Game
REM DATE 2008
REM DISCID B60C300C
REM COMMENT "ExactAudioCopy v0.99pb4"
PERFORMER "SOUND HOLIC"
TITLE "紅 -KURENAI-"
FILE "紅 -KURENAI-.wav" WAVE
  TRACK 01 AUDIO
    TITLE "Awakening of the Scarlet World"
    PERFORMER "SOUND HOLIC"
    INDEX 01 00:00:00
  TRACK 02 AUDIO
    TITLE "Grip & Break down !!"
    PERFORMER "Nana Takahashi"
    INDEX 00 01:53:66
    INDEX 01 01:55:67
  TRACK 03 AUDIO
    TITLE "Dial Connected"
    PERFORMER "aki"
    INDEX 00 05:55:50
    INDEX 01 05:57:51
  TRACK 04 AUDIO
    TITLE "No more crying"
    PERFORMER "CALEN"
    INDEX 00 10:53:62
    INDEX 01 10:55:63
  TRACK 05 AUDIO
    TITLE "Eternal Wish"
    PERFORMER "有馬美咲"
    INDEX 00 15:05:59
    INDEX 01 15:07:60
  TRACK 06 AUDIO
    TITLE "Strange Scarlet"
    PERFORMER "A～YA"
    INDEX 00 19:33:65
    INDEX 01 19:35:66
  TRACK 07 AUDIO
    TITLE "あなたにお茶を <Tea for you>"
    PERFORMER "A～YA"
    INDEX 00 23:23:72
    INDEX 01 23:25:73
  TRACK 08 AUDIO
    TITLE "celebrate the colors tonight"
    PERFORMER "aki"
    INDEX 00 27:34:65
    INDEX 01 27:36:66
  TRACK 09 AUDIO
    TITLE "ときめき☆冷凍パック"
    PERFORMER "有馬美咲"
    INDEX 00 33:08:54
    INDEX 01 33:10:55
  TRACK 10 AUDIO
    TITLE "Get the star for you"
    PERFORMER "709sec."
    INDEX 00 37:23:39
    INDEX 01 37:25:40
  TRACK 11 AUDIO
    TITLE "Brand-new WORLD"
    PERFORMER "Nana Takahashi"
    INDEX 00 41:08:58
    INDEX 01 41:10:59
  TRACK 12 AUDIO
    TITLE "Priere -プリエール-"
    PERFORMER "Nana Takahashi"
    INDEX 00 45:41:74
    INDEX 01 45:44:00